<svg xmlns="http://www.w3.org/2000/svg" xml:space="preserve" id="Layer_1" x="0" y="0" version="1.1"
     viewBox="-120 -120 500 500" class="fill-red-500">
    <path
            d="M100.7 142.7c-9.4 4.1-17.8 9.7-24.2 17.8-3.4 4.4-3.6 9.5-1.1 14.5 2.4 4.8 6.4 7.4 11.8 7.9 5.4.4 9.3-2 13-5.6 13.1-12.9 33-15.1 48.5-5.4l-33.5-33.5c-5.2.9-9.9 2.3-14.5 4.3zm104.9-23.6c-22.1-19.6-47.8-29.7-79.8-30.1-3 .3-8.2.5-13.4 1.2-.3 0-.6.1-1 .1l28.3 28.3c14 2 27.6 7.4 39.4 16.2 4.5 3.4 8.6 7.3 13.1 10.6 4.4 3.2 11.4 2.7 15.9-.7 4.5-3.3 6.7-9.5 5.5-14.7-1.1-4.8-4.5-7.8-8-10.9zm-106 3.6-22.1-22.1c-11.2 5.5-21.4 12.8-30.8 21.8-8.5 8.1-5.5 20.8 5.5 24.4 5.4 1.7 10.2 0 14.5-3.5 5.5-4.5 10.9-9.2 16.9-12.9 5.1-3.2 10.5-5.7 16-7.7zM128 187c-9.6-.1-17.5 7.8-17.4 17.4.1 9.6 7.8 17.1 17.4 17.1 9.6 0 17.3-7.7 17.3-17.2s-7.7-17.2-17.3-17.3z"/>
    <path
            d="M241 85.9C209.2 56.2 171.4 41.5 123.4 41c-4.9.5-14.2 1.1-23.4 2.6-9.8 1.6-19.2 4-28.2 7.2l23.1 23.1c4.9-1.2 10-2.1 15.2-2.8 22.1-2.8 43.6-.6 64.5 6.9 17.2 6.2 32.4 15.7 45.8 28.2 3.6 3.3 7.7 5.4 12.6 4.8 5.9-.7 10.2-3.9 12.1-9.6 2.1-6 .5-11.3-4.1-15.5zM41.9 65.1C32.5 71 23.5 77.9 15.1 85.8c-2.1 2-3.8 4.8-4.6 7.5-1.9 6.5 1.1 12.7 6.8 16 5.5 3.2 12.5 2.2 17.6-2.6 8.7-8.1 18-15 28-20.4l-21-21.2zM52 37.7c-4.2-4.2-11.1-4.2-15.3 0s-4.2 11.1 0 15.3l127 127c4.2 4.2 11.1 4.2 15.3 0 4.2-4.2 4.2-11.1 0-15.3L52 37.7z"/>
</svg>